inDegrees=no
num_controls=7
num_derivatives=13
num_iterations=37
num_multipliers=7
num_parameters=0
num_slacks=7
num_states=26
objective=0.386007
objective_accelerations=0.060442
objective_balance=0.001953
objective_effort=0.020291
objective_height=0.296796
objective_ligament=0.006525
solver_duration=563.049740
status=Solve_Succeeded
success=true
DataType=double
version=3
OpenSimVersion=4.5
endheader
time	/jointset/ground_pelvis/pelvis_tilt/value	/jointset/ground_pelvis/pelvis_tx/value	/jointset/ground_pelvis/pelvis_ty/value	/jointset/hip_l/hip_flexion_l/value	/jointset/hip_l/hip_adduction_l/value	/jointset/hip_l/hip_rotation_l/value	/jointset/back/lumbar_extension/value	/jointset/patellofemoral_l/patellar_flexion_l/value	/jointset/knee_l/knee_flexion_l/value	/jointset/knee_l/knee_adduction_l/value	/jointset/knee_l/knee_rotation_l/value	/jointset/ankle_l/ankle_angle_l/value	/jointset/subtalar_l/subtalar_angle_l/value	/jointset/ground_pelvis/pelvis_tilt/speed	/jointset/ground_pelvis/pelvis_tx/speed	/jointset/ground_pelvis/pelvis_ty/speed	/jointset/hip_l/hip_flexion_l/speed	/jointset/hip_l/hip_adduction_l/speed	/jointset/hip_l/hip_rotation_l/speed	/jointset/back/lumbar_extension/speed	/jointset/patellofemoral_l/patellar_flexion_l/speed	/jointset/knee_l/knee_flexion_l/speed	/jointset/knee_l/knee_adduction_l/speed	/jointset/knee_l/knee_rotation_l/speed	/jointset/ankle_l/ankle_angle_l/speed	/jointset/subtalar_l/subtalar_angle_l/speed	/forceset/tau_hip_flexion_l	/forceset/tau_hip_adduction_l	/forceset/tau_hip_rotation_l	/forceset/tau_knee_flexion_l	/forceset/tau_ankle_angle_l	/forceset/tau_subtalar_angle_l	/forceset/tau_lumbar_extension	lambda_cid13_p0	lambda_cid13_p1	lambda_cid13_p2	lambda_cid13_p3	lambda_cid13_p4	lambda_cid13_p5	lambda_cid14_p0	/jointset/ground_pelvis/pelvis_tilt/accel	/jointset/ground_pelvis/pelvis_tx/accel	/jointset/ground_pelvis/pelvis_ty/accel	/jointset/hip_l/hip_flexion_l/accel	/jointset/hip_l/hip_adduction_l/accel	/jointset/hip_l/hip_rotation_l/accel	/jointset/back/lumbar_extension/accel	/jointset/patellofemoral_l/patellar_flexion_l/accel	/jointset/knee_l/knee_flexion_l/accel	/jointset/knee_l/knee_adduction_l/accel	/jointset/knee_l/knee_rotation_l/accel	/jointset/ankle_l/ankle_angle_l/accel	/jointset/subtalar_l/subtalar_angle_l/accel	gamma_cid13_p0	gamma_cid13_p1	gamma_cid13_p2	gamma_cid13_p3	gamma_cid13_p4	gamma_cid13_p5	gamma_cid14_p0
1.5	-0.3812313515635185	0.01217536821424069	0.7068205681949209	1.331225022284656	-0.3469628453374639	0.01529161267193791	-0.3761768340086569	1.153485160977179	1.153485160977321	0.0447154746743588	-0.1731875938389028	0.3509521878911478	0.2038524664589074	0.4937084650182177	0.2862666325303677	0.8562911162055501	-3.051854673245211	-0.02504332111335842	-0.7133098999325638	0.542130085830228	-2.925503283310569	-2.925503283310692	-0.4328273097468483	0.0297898201441902	-0.5931431655171873	-0.3225881303893054	-0.1663604970786962	0.07525093447319686	-0.01431518712039906	-0.1820295692254625	-0.005815823207219534	-0.003268282306463094	0.1551323796274698	-27.9752969937294	11.60749202295854	-8.173791760724388	-6.57832102928828	-436.4519038537077	-25.76582085819821	-0.545085577607496	1.591592951192812	1.115279616487227	-0.8074109072228267	-2.522482936982898	0.5297509821989046	-0.4365272541475373	2.66821949917658	-2.709392998253643	-2.709392998253644	-0.1616823827569455	0.5476085385543753	-1.875390966644451	0.2932084862405919	3.259219121145056e-07	5.210010622554485e-06	-3.562474112329728e-06	7.125212742941949e-07	8.973425295877961e-07	1.870813770721996e-06	1.005081517631039e-06
1.51	-0.3762152115233025	0.01509341992175459	0.7153409377413621	1.300583396220848	-0.3471896316774509	0.008136207983066766	-0.3706238432194505	1.12409770746427	1.124097707464299	0.04037538485862525	-0.1728676790371877	0.3449273167855589	0.2006374858550554	0.5093788088993686	0.2972953817389955	0.8475528332004612	-3.07603544844584	-0.02031357160476741	-0.7176904860522996	0.5683942169880398	-2.951585988497271	-2.951585988497276	-0.4351910431983719	0.03425426849751849	-0.6117027607370591	-0.3203261315299589	-0.1606395926681636	0.07502586275430252	-0.01346943131583502	-0.1748051080183621	-0.007189257255511776	-0.003461717169712754	0.1502145676819733	-27.97395205824818	11.31228414726746	-7.693840631907429	-6.164340961788396	-429.9203140012609	-25.28346985370344	-0.9070778683270487	1.53371812589064	1.08958689199195	-0.9413292309245472	-2.300526788986103	0.4447367434012077	-0.4256356742574197	2.594431671833036	-2.497706962925907	-2.497706962908128	-0.2728020393049818	0.4045386239567813	-1.826684795989609	0.2044160768780673	3.319678428451159e-07	5.882105835588609e-06	-3.559495850727773e-06	7.814900186179812e-07	9.708657805468557e-07	2.410651513929847e-06	1.042315306592884e-06
1.52	-0.3710465754404328	0.01812034198514235	0.7237670660109971	1.269713032009544	-0.3473690905607166	0.0009396351563238504	-0.3648104267691172	1.094461427362681	1.094461427362613	0.03601184106589556	-0.1725013846238909	0.3387207615285068	0.1974474693380152	0.5242076735531533	0.3080407037051413	0.8374428608444388	-3.097602302741791	-0.01557782976767819	-0.7215435275068771	0.5942152180558704	-2.975268601045876	-2.975268601045763	-0.4375181051681091	0.03906574246023862	-0.629479995810179	-0.3175953130267568	-0.1549186882575985	0.07480079103535353	-0.01262367551087339	-0.1675806468112504	-0.00856269130382324	-0.003655152033055195	0.1452967557365115	-27.96590377485282	10.99800435823259	-7.190403455488238	-5.796683718551133	-423.2725459156079	-24.91220883835996	-1.362651111954875	1.423297105719547	1.058594167990853	-1.081748777409419	-1.999698756047807	0.5309494478984672	-0.3310183211159273	2.579593481180674	-2.229374470634714	-2.229374470634706	-0.1543480863997398	0.6170136604327636	-1.718918937294145	0.3869724150116707	3.289618039645217e-07	6.583586591212743e-06	-3.454390722672081e-06	8.562006686669359e-07	1.038165166305325e-06	2.980760010361978e-06	1.066152936422406e-06
1.53	-0.3657337387901368	0.02125329712340704	0.7320853733262889	1.238639682907551	-0.3475012783936385	-0.006294495554398611	-0.3587412769666732	1.064600430617163	1.064600430617136	0.03162628315579297	-0.1720861429229599	0.3323407239551235	0.1942871280509892	0.5382117865309677	0.3184997576173076	0.825997615836694	-3.116626140995161	-0.01085678568210762	-0.7252428585740675	0.619536876781183	-2.996491335685734	-2.996491335685752	-0.4395476278494506	0.0440227761769597	-0.6463551767699355	-0.314376761613588	-0.1491670695439888	0.07405988504001453	-0.01179188783121609	-0.1608392856817336	-0.00965619483344583	-0.003882394318099692	0.1403586455920227	-27.89228570201441	10.68884604448186	-6.689976599704345	-5.484010323522987	-416.9493159305479	-24.65650303740032	-1.912735395569883	1.36685490105734	1.032172108323951	-1.208834050691497	-1.787441189018767	0.4430280926276862	-0.3822637949048656	2.496772221622624	-2.003027285523308	-2.003027285542935	-0.21922771808712	0.4407039935499336	-1.645600206304838	0.3028809663775204	3.16338047372023e-07	7.316289485838758e-06	-3.240775799009294e-06	9.37012093548882e-07	1.098851695288167e-06	3.583031182094904e-06	1.075757147173837e-06
1.54	-0.3602852837086318	0.02448936502189163	0.7402826438538557	1.207389352457205	-0.3475861865449592	-0.01356419423488834	-0.3524212465462944	1.034540345660275	1.034540345660295	0.02722203534720152	-0.1716201997316009	0.3257971780659512	0.1911616891704753	0.5513313597986403	0.3286632557491225	0.813235503299497	-3.132998572410015	-0.006121893446853	-0.7286571214566401	0.6443913416431711	-3.015086243320077	-3.015086243320226	-0.4412560848942427	0.04920604054401006	-0.6621816589692358	-0.3106148317240999	-0.1434154508303735	0.07331897904454926	-0.01096010015105464	-0.1540979245522208	-0.01074969836311162	-0.004109636603363443	0.1354205354475537	-27.80946283663976	10.36039139297518	-6.166272567177979	-5.218212367531192	-410.4595040261069	-24.50320297932961	-2.559805692742328	1.246389163691107	0.9994830119206164	-1.345122283299764	-1.46941738834544	0.5337190778351796	-0.2740046841923889	2.4861547085161	-1.703809069532214	-1.703809069532207	-0.09013495908998682	0.6622597904986572	-1.509179185203021	0.4956481102754902	3.06400758063287e-07	8.153213922521127e-06	-3.113438232606347e-06	1.032038979221679e-06	1.161908358352298e-06	4.172935053148179e-06	1.110853604625437e-06
1.55	-0.3547101206078444	0.02782532836234916	0.748345875603573	1.175988565168257	-0.3476241838176311	-0.02086581962364339	-0.3458558026218193	1.004307290545618	1.004307290545721	0.02280040955469786	-0.1711017098210327	0.3191002446548321	0.1880756481385432	0.5635341491429582	0.3384505880160759	0.7992023352151071	-3.146677716340904	-0.001503195361598676	-0.731421662659713	0.6685534338757586	-3.031072072400459	-3.031072072400569	-0.4432338631467012	0.05461393693086596	-0.6770569247827279	-0.3065618460515264	-0.1375591147194976	0.07254720341494861	-0.01015839976151153	-0.1477072174459921	-0.01206796086355341	-0.004659952648858086	0.1303016622925124	-27.86788295630642	10.21371370572019	-5.690666117162499	-4.620727465919974	-404.337067358916	-24.08519413379069	-3.306469589894388	1.182222320211032	0.9567757527643581	-1.463437936178437	-1.244910777452486	0.4218008878865924	-0.2394214830605747	2.359635075345221	-1.478305974979051	-1.478305974973248	-0.2749013096068313	0.4980302359515004	-1.454049186999934	0.3636992661506935	2.995587462771472e-07	9.110219701137985e-06	-3.085507186524514e-06	1.143444547979587e-06	1.227695828075306e-06	4.748589642983598e-06	1.175321563709839e-06
1.56	-0.3490179299135609	0.03125684850921153	0.7562625708994116	1.144465436863591	-0.3476168229666798	-0.02818743895327117	-0.3390530580560752	0.9739279099106829	0.9739279099107077	0.01835434556863375	-0.1705255458119467	0.3122590888040365	0.1850308520574168	0.5747368785036513	0.3477746170300919	0.7839282125238288	-3.157466775551495	0.002949731284238698	-0.7326559096505784	0.6918514698969807	-3.044351347388361	-3.044351347388433	-0.4461437234504501	0.06074086024460824	-0.6910261468993265	-0.302365841562844	-0.1317027786084606	0.07177542778573046	-0.009356699375708884	-0.1413165103398593	-0.01338622336387114	-0.005210268693631544	0.1251827891375972	-27.91330546248688	10.04489385419971	-5.188835113512169	-4.077807283120634	-398.0029824736474	-23.76948505229402	-4.154743585271615	1.046377166966085	0.9068223613332258	-1.593313204677322	-0.8914004442861585	0.5005647899520752	0.03205415824906524	2.313343466243218	-1.162498251036811	-1.162498251036815	-0.2765513693481899	0.8060651758758968	-1.327970445824274	0.5242518734972296	1.474662745660291e-07	1.048381036856821e-05	-1.180429348668506e-06	1.383445977394281e-06	1.069622045220157e-06	5.441588669273639e-06	1.035017923773042e-06
1.57	-0.3432186529620098	0.03477933085915321	0.764020458531057	1.11284891320787	-0.3475638730648563	-0.03552581269756166	-0.332021425013382	0.9434296076263965	0.9434296076262046	0.01388724158453025	-0.1698890002505429	0.3052839565873843	0.1820320855710445	0.5849628525409467	0.3566466789021436	0.7674546116467603	-3.16534921822919	0.007660043378101743	-0.7351685412596323	0.7143514625698939	-3.054792974092024	-3.054792974092048	-0.4470590752802313	0.06645235529134051	-0.7037741009027715	-0.2972661075879271	-0.1261374014012853	0.07067961022582671	-0.008714330385726608	-0.1353338151837431	-0.01455633818364213	-0.005804579676973863	0.1203283904076147	-27.94645371455054	9.890054270112804	-4.685828790584581	-3.644392895236231	-392.2617022526491	-23.54515701807674	-5.105622246336206	0.9873520902121805	0.8665249768355052	-1.703512933308845	-0.6633755989619599	0.4573450945991451	-0.4148480295331434	2.199775758172485	-0.9076566903836147	-0.9076566903762388	0.0356935548186929	0.4376927157311696	-1.213746343233628	0.5182575438213554	-1.861892720513101e-07	1.237813214701513e-05	3.071081978905198e-06	1.784192232629956e-06	6.317216966423164e-07	6.281268241131959e-06	6.387497850597494e-07
1.58	-0.3373217873564595	0.03838835920315394	0.7716077842731134	1.081168223241483	-0.3474636039069603	-0.04289369799988345	-0.3247685023258889	0.9128423567127986	0.9128423567128654	0.009417928212235048	-0.1691985395293731	0.2981882371376068	0.1790874011012873	0.5942546093023825	0.3650838158419019	0.7498158346060969	-3.170300037684866	0.01241358249191077	-0.7385582212307898	0.7361093988571176	-3.062141073209786	-3.06214107320976	-0.4465856013256246	0.07152389220447992	-0.7151435935313822	-0.2915494382397263	-0.120572024194261	0.06958379266529303	-0.008071961388633737	-0.1293511200274962	-0.01572645300364383	-0.00639889066148243	0.1154739916775716	-27.96780017603338	9.722271563477689	-4.168343489025741	-3.238997860072752	-386.2972298704701	-23.32876176859322	-6.158471618259352	0.8595337117938296	0.8198373748746093	-1.826348437396185	-0.3050757998828337	0.5092101939405844	-0.1433555141715861	2.164932189105591	-0.5437927338566372	-0.5437927338566322	0.001213787529100606	0.6780735491574924	-1.052278170857498	0.6476389481539762	-2.888607097222836e-09	1.044151241459936e-05	8.204911798547709e-07	1.386963931766243e-06	1.013646446051141e-06	5.931598529506657e-06	7.059951582315925e-07
1.59	-0.3313367410133681	0.04207925245359723	0.7790132424272844	1.049452191557804	-0.3473179935819007	-0.05027802904558738	-0.3173029838560034	0.8821966675936947	0.8821966675944863	0.004939278391847636	-0.1684493918382405	0.2909842028321507	0.1761986137522658	0.602548274086421	0.3729865585940003	0.7311039319945936	-3.172354330007499	0.01673939564362724	-0.7386137456334599	0.7567843681551047	-3.066517580423969	-3.066517580423874	-0.4487555779032738	0.07815367778324324	-0.7254775071091215	-0.2860919468495849	-0.1147278514584507	0.06842699369367704	-0.007491155674562816	-0.1243037649381245	-0.01677996524615849	-0.007217647724862851	0.1103242718520362	-28.03748855655218	9.690388887735446	-3.706745050218383	-2.524364729337959	-381.1431284729534	-23.036772138199	-7.310124067455249	0.7834469339836123	0.7590563049623027	-1.918711031956377	-0.07261594948382513	0.4015116407822079	0.01947792002937415	1.987290256477309	-0.3130676511749713	-0.3130676511645586	-0.2682705938446514	0.6294628191356023	-0.9960358145758595	0.5143704697526323	8.819954878466188e-07	3.305757774584509e-06	-1.025438107675649e-05	-9.322983808943635e-08	2.508190971298948e-06	3.96781193315367e-06	1.402294583247514e-06
